<svg xmlns="http://www.w3.org/2000/svg" width="320" height="180" viewBox="0 0 320 180"><rect width="100%" height="100%" fill="#1f2833"/><path fill="#eee" d="M94.375 69.91h6.51v39.77h-3.79q-.88 0-1.47-.29-.6-.29-1.14-.97l-20.77-26.51q.17 1.81.17 3.35v24.42h-6.52V69.91h3.88q.46 0 .81.05.34.04.6.16t.51.36q.25.23.55.62l20.85 26.62q-.08-.97-.14-1.9-.05-.93-.05-1.73zm26.78 11.11q3.13 0 5.71 1.02 2.57 1.02 4.4 2.89 1.82 1.87 2.81 4.57.99 2.69.99 6.02 0 3.35-.99 6.05-.99 2.69-2.81 4.59-1.83 1.9-4.4 2.92-2.58 1.01-5.71 1.01-3.16 0-5.75-1.01-2.58-1.02-4.41-2.92t-2.83-4.59q-1.01-2.7-1.01-6.05 0-3.33 1.01-6.02 1-2.7 2.83-4.57t4.41-2.89q2.59-1.02 5.75-1.02m0 23.85q3.52 0 5.21-2.37 1.69-2.36 1.69-6.93 0-4.56-1.69-6.96-1.69-2.39-5.21-2.39-3.58 0-5.29 2.41-1.72 2.41-1.72 6.94 0 4.54 1.72 6.92 1.71 2.38 5.29 2.38m40.97-34.96v39.77h-7.42V69.91zm29.81 15.05-1.78 2.47q-.31.39-.59.61-.29.22-.84.22-.53 0-1.02-.32-.5-.31-1.18-.71-.69-.4-1.64-.72-.95-.31-2.35-.31-1.79 0-3.14.64-1.34.65-2.24 1.86-.89 1.21-1.33 2.93-.44 1.71-.44 3.89 0 2.25.48 4.01t1.39 2.96q.91 1.19 2.2 1.81t2.91.62q1.63 0 2.63-.4 1-.39 1.69-.88.69-.48 1.2-.88t1.14-.4q.82 0 1.24.64l1.95 2.47q-1.13 1.32-2.45 2.22-1.32.89-2.73 1.43-1.42.53-2.92.75t-2.98.22q-2.62 0-4.93-.97-2.31-.98-4.04-2.85t-2.73-4.58q-1.01-2.71-1.01-6.17 0-3.11.9-5.76.89-2.66 2.62-4.6t4.29-3.03q2.56-1.11 5.89-1.11 3.16 0 5.54 1.02t4.27 2.92m17-3.94q3.13 0 5.71 1.02 2.57 1.02 4.4 2.89 1.82 1.87 2.81 4.57.99 2.69.99 6.02 0 3.35-.99 6.05-.99 2.69-2.81 4.59-1.83 1.9-4.4 2.92-2.58 1.01-5.71 1.01-3.16 0-5.75-1.01-2.58-1.02-4.41-2.92t-2.83-4.59q-1.01-2.7-1.01-6.05 0-3.33 1.01-6.02 1-2.7 2.83-4.57t4.41-2.89q2.59-1.02 5.75-1.02m0 23.85q3.52 0 5.21-2.37 1.69-2.36 1.69-6.93 0-4.56-1.69-6.96-1.69-2.39-5.21-2.39-3.58 0-5.29 2.41-1.72 2.41-1.72 6.94 0 4.54 1.72 6.92 1.71 2.38 5.29 2.38m25-22.17.46 2.23q.86-.85 1.81-1.58.94-.73 2-1.24t2.27-.8 2.64-.29q2.31 0 4.1.79 1.79.78 2.98 2.2 1.2 1.42 1.82 3.38.62 1.97.62 4.33v17.96h-6.8V91.72q0-2.58-1.18-4t-3.6-1.42q-1.76 0-3.3.8t-2.92 2.17v20.41h-6.79V81.47h4.16q1.31 0 1.73 1.23"/></svg>